HIERARCHY
ROOT Hips
{
	OFFSET 0.000000 0.000000 0.000000
	CHANNELS 6 Xposition Yposition Zposition Zrotation Yrotation Xrotation 
	JOINT LowerBack
	{
		OFFSET 0.000000 0.000000 0.000000
		CHANNELS 3 Zrotation Yrotation Xrotation
		JOINT Spine
		{
			OFFSET 0.028270 2.035590 -0.193380
			CHANNELS 3 Zrotation Yrotation Xrotation
			JOINT Spine1
			{
				OFFSET 0.056720 2.048850 -0.042750
				CHANNELS 3 Zrotation Yrotation Xrotation
				JOINT Neck
				{
					OFFSET 0.000000 0.000000 0.000000
					CHANNELS 3 Zrotation Yrotation Xrotation
					JOINT Neck1
					{
						OFFSET -0.054170 1.746240 0.172020
						CHANNELS 3 Zrotation Yrotation Xrotation
						JOINT Head
						{
							OFFSET 0.104070 1.761360 -0.123970
							CHANNELS 3 Zrotation Yrotation Xrotation
							End Site
							{
								OFFSET 0.000000 0.000000 0.000000
							}
						}
					}
				}
				JOINT LeftShoulder
				{
					OFFSET 0.000000 0.000000 0.000000
					CHANNELS 3 Zrotation Yrotation Xrotation
					JOINT LeftArm
					{
						OFFSET 3.362410 1.200890 -0.311210
						CHANNELS 3 Zrotation Yrotation Xrotation
						JOINT LeftForeArm
						{
							OFFSET 4.983000 -0.000000 -0.000000
							CHANNELS 3 Zrotation Yrotation Xrotation
							JOINT LeftHand
							{
								OFFSET 3.483560 -0.000000 -0.000000
								CHANNELS 3 Zrotation Yrotation Xrotation
								JOINT LeftFingerBase
								{
									OFFSET 0.000000 0.000000 0.000000
									CHANNELS 3 Zrotation Yrotation Xrotation
									JOINT LeftHandIndex1
									{
										OFFSET 0.715260 -0.000000 -0.000000
										CHANNELS 3 Zrotation Yrotation Xrotation
										End Site
										{
											OFFSET 0.000000 0.000000 0.000000
										}
									}
								}
								JOINT LThumb
								{
									OFFSET 0.000000 0.000000 0.000000
									CHANNELS 3 Zrotation Yrotation Xrotation
									End Site
									{
										OFFSET 0.000000 0.000000 0.000000
									}
								}
							}
						}
					}
				}
				JOINT RightShoulder
				{
					OFFSET 0.000000 0.000000 0.000000
					CHANNELS 3 Zrotation Yrotation Xrotation
					JOINT RightArm
					{
						OFFSET -3.136600 1.374050 -0.404650
						CHANNELS 3 Zrotation Yrotation Xrotation
						JOINT RightForeArm
						{
							OFFSET -5.241900 -0.000000 -0.000000
							CHANNELS 3 Zrotation Yrotation Xrotation
							JOINT RightHand
							{
								OFFSET -3.444170 -0.000000 -0.000000
								CHANNELS 3 Zrotation Yrotation Xrotation
								JOINT RightFingerBase
								{
									OFFSET 0.000000 0.000000 0.000000
									CHANNELS 3 Zrotation Yrotation Xrotation
									JOINT RightHandIndex1
									{
										OFFSET -0.622530 -0.000000 -0.000000
										CHANNELS 3 Zrotation Yrotation Xrotation
										End Site
										{
											OFFSET 0.000000 0.000000 0.000000
										}
									}
								}
								JOINT RThumb
								{
									OFFSET 0.000000 0.000000 0.000000
									CHANNELS 3 Zrotation Yrotation Xrotation
									End Site
									{
										OFFSET 0.000000 0.000000 0.000000
									}
								}
							}
						}
					}
				}
			}
		}
	}
}
}
MOTION
Frames: 14
Frame Time: 0.008333
-1.780430 16.297375 0.387807 -158.067294 73.089050 -144.020564 -4.169541 0.547765 13.084588 -2.178767 0.687841 -0.123631 -7.282767 0.738599 0.683276 7.472869 2.276467 5.321635 -3.933051 -0.386437 2.869558 0.000000 0.000000 0.000000 -5.211738 0.722568 1.596693 -60.169131 12.593903 17.950817 -3.501313 -16.550166 -0.010930 -2.691369 5.794010 -0.135531 -0.060843 -0.092648 -0.000000 0.000000 0.000000 0.000000 0.000000 0.000000 0.000000 13.008839 2.285835 -2.806333 74.450658 32.469867 27.149222 1.372684 56.148264 0.001023 -1.104447 12.321271 -0.124126 0.024802 -0.276184 -0.000000 0.000000 0.000000 0.000000 0.000000 0.000000 0.000000 
-1.667585 16.287518 0.317296 -158.665457 72.820052 -144.972451 -4.175373 0.649165 13.186270 -2.187766 0.796508 -0.061294 -7.283554 0.850049 0.806951 6.945355 2.518043 5.519707 -4.031109 -0.391415 2.897538 0.000000 0.000000 0.000000 -5.656995 1.026066 1.530354 -59.724633 10.316754 16.641710 -3.524688 -15.468126 -0.009324 -1.759693 5.878099 -0.088583 -0.062988 -0.082104 -0.000000 0.000000 0.000000 0.000000 0.000000 0.000000 0.000000 12.791033 2.357317 -2.879118 74.451401 32.129935 26.111869 1.430319 54.418598 0.001151 -1.121374 12.403384 -0.126744 0.024690 -0.263972 -0.000000 0.000000 0.000000 0.000000 0.000000 0.000000 0.000000 
-1.555983 16.284424 0.242670 -159.032581 72.538841 -145.639023 -4.099656 0.766106 13.209646 -2.179436 0.923180 -0.013340 -7.286378 0.978432 0.942732 6.417584 2.762349 5.681777 -4.129347 -0.396001 2.917347 0.000000 0.000000 0.000000 -6.130721 1.409525 1.453406 -59.359138 7.843274 14.901777 -3.524130 -14.339124 -0.007041 -0.358442 5.801477 -0.015329 -0.062809 -0.069907 -0.000000 0.000000 0.000000 0.000000 0.000000 0.000000 0.000000 12.574481 2.436005 -2.932710 74.387897 31.740951 25.011867 1.495572 52.593215 0.001475 -1.098804 12.415726 -0.124261 0.024694 -0.250729 -0.000000 0.000000 0.000000 0.000000 0.000000 0.000000 0.000000 
-1.445577 16.287438 0.164944 -159.223312 72.241224 -146.077270 -3.961325 0.892512 13.162808 -2.157617 1.061207 0.019838 -7.293445 1.117224 1.084030 5.911131 3.004337 5.801979 -4.223720 -0.400004 2.928253 0.000000 0.000000 0.000000 -6.619769 1.857348 1.366939 -59.067171 5.239909 12.822995 -3.496247 -13.272391 -0.004399 1.454525 5.495777 0.073327 -0.059492 -0.057199 -0.000000 0.000000 0.000000 0.000000 0.000000 0.000000 0.000000 12.371805 2.520001 -2.963854 74.262566 31.310314 23.868254 1.568588 50.687275 0.001964 -1.036197 12.361977 -0.116678 0.024853 -0.236774 -0.000000 0.000000 0.000000 0.000000 0.000000 0.000000 0.000000 
-1.336301 16.295961 0.085329 -159.310661 71.919974 -146.363932 -3.782786 1.021872 13.055478 -2.126667 1.203186 0.035286 -7.305961 1.258827 1.213629 5.445189 3.251648 5.889662 -4.309871 -0.403391 2.933816 0.000000 0.000000 0.000000 -7.108227 2.291503 1.276300 -58.849811 2.654545 10.472391 -3.442899 -12.417166 -0.001765 3.558203 4.912740 0.156375 -0.052875 -0.045504 -0.000000 0.000000 0.000000 0.000000 0.000000 0.000000 0.000000 12.189504 2.619873 -2.965760 74.079004 30.824055 22.677797 1.649165 48.721021 0.002598 -0.928310 12.245821 -0.103694 0.025105 -0.222525 -0.000000 0.000000 0.000000 0.000000 0.000000 0.000000 0.000000 
-1.228161 16.309501 0.005034 -159.373536 71.565277 -146.580527 -3.587956 1.146503 12.902223 -2.091186 1.340529 0.036491 -7.323002 1.395116 1.332806 5.034922 3.489671 5.937212 -4.385417 -0.405999 2.932286 0.000000 0.000000 0.000000 -7.571212 2.718694 1.184139 -58.713128 0.112658 8.045441 -3.369483 -11.854226 0.000551 5.782566 4.042543 0.207612 -0.043714 -0.035916 -0.000000 0.000000 0.000000 0.000000 0.000000 0.000000 0.000000 12.039952 2.721215 -2.940337 73.846797 30.305013 21.472051 1.737475 46.701740 0.003341 -0.781316 12.079156 -0.086410 0.025572 -0.208184 -0.000000 0.000000 0.000000 0.000000 0.000000 0.000000 0.000000 
-1.121176 16.327671 -0.074868 -159.485891 71.165595 -146.805468 -3.397430 1.259213 12.715597 -2.054829 1.465284 0.022422 -7.342598 1.517994 1.427517 4.690562 3.727247 5.958149 -4.447402 -0.407858 2.927873 0.000000 0.000000 0.000000 -7.985141 3.065127 1.097810 -58.672313 -2.258388 5.662043 -3.285579 -11.690804 0.002385 7.941277 2.933645 0.206636 -0.033460 -0.029176 -0.000000 0.000000 0.000000 0.000000 0.000000 0.000000 0.000000 11.923207 2.833703 -2.883910 73.573837 29.738607 20.241644 1.833020 44.648131 0.004167 -0.589197 11.867857 -0.064624 0.026171 -0.194073 -0.000000 0.000000 0.000000 0.000000 0.000000 0.000000 0.000000 
-1.015359 16.350201 -0.153622 -159.703065 70.709128 -147.096857 -3.227014 1.352863 12.510157 -2.020622 1.569912 -0.001045 -7.363014 1.620501 1.506179 4.417058 3.941989 5.943421 -4.495806 -0.408863 2.917837 0.000000 0.000000 0.000000 -8.333647 3.359647 1.018427 -58.736845 -4.486465 3.528993 -3.201584 -11.929201 0.003661 9.868944 1.683342 0.147952 -0.024101 -0.024920 -0.000000 0.000000 0.000000 0.000000 0.000000 0.000000 0.000000 11.848935 2.932795 -2.802073 73.270888 29.159919 19.027576 1.936131 42.557591 0.005052 -0.364247 11.628553 -0.040037 0.027101 -0.180267 -0.000000 0.000000 0.000000 0.000000 0.000000 0.000000 0.000000 
-0.910774 16.376908 -0.230795 -160.057539 70.184968 -147.492794 -3.082881 1.422081 12.294386 -1.989164 1.648823 -0.036726 -7.381352 1.696534 1.550306 4.213188 4.160673 5.918249 -4.528447 -0.409159 2.909314 0.000000 0.000000 0.000000 -8.603282 3.509480 0.954581 -58.914032 -6.435082 1.738673 -3.124899 -12.635418 0.004427 11.446988 0.428637 0.045359 -0.017294 -0.022376 -0.000000 0.000000 0.000000 0.000000 0.000000 0.000000 0.000000 11.802723 3.046697 -2.690693 72.945443 28.528661 17.781548 2.045907 40.459860 0.005975 -0.086522 11.355969 -0.011149 0.028105 -0.167037 -0.000000 0.000000 0.000000 0.000000 0.000000 0.000000 0.000000 
-0.807494 16.407575 -0.306335 -160.553222 69.583423 -148.000164 -2.963682 1.462347 12.077410 -1.960219 1.697531 -0.079877 -7.396930 1.741974 1.567953 4.072713 4.369434 5.878965 -4.546692 -0.408732 2.900741 0.000000 0.000000 0.000000 -8.797520 3.542872 0.906093 -59.192057 -8.148778 0.438932 -3.060557 -13.759972 0.004676 12.617360 -0.696020 -0.074732 -0.014368 -0.020001 -0.000000 0.000000 0.000000 0.000000 0.000000 0.000000 0.000000 11.784053 3.159863 -2.555746 72.607513 27.867150 16.522869 2.162812 38.355570 0.006921 0.237621 11.059402 0.020840 0.029322 -0.154388 -0.000000 0.000000 0.000000 0.000000 0.000000 0.000000 0.000000 
-0.705533 16.442026 -0.380591 -161.169506 68.897346 -148.602325 -2.859383 1.471424 11.863355 -1.931615 1.713818 -0.130590 -7.408757 1.754380 1.553876 3.984985 4.581952 5.839215 -4.550897 -0.407697 2.895550 0.000000 0.000000 0.000000 -8.924018 3.431121 0.875915 -59.551102 -9.597426 -0.321616 -3.009041 -15.277704 0.004394 13.370406 -1.580391 -0.183418 -0.015756 -0.016440 -0.000000 0.000000 0.000000 0.000000 0.000000 0.000000 0.000000 11.778382 3.286522 -2.398365 72.264724 27.155144 15.216670 2.286615 36.266603 0.007870 0.620374 10.731775 0.056530 0.030643 -0.142396 -0.000000 0.000000 0.000000 0.000000 0.000000 0.000000 0.000000 
-0.604922 16.479973 -0.454169 -161.867636 68.121415 -149.262793 -2.756033 1.448256 11.656599 -1.901450 1.696690 -0.181006 -7.419895 1.733630 1.531946 3.937451 4.752762 5.778529 -4.546259 -0.406067 2.887150 0.000000 0.000000 0.000000 -9.007050 3.261905 0.856986 -59.958802 -10.929219 -0.496708 -2.971894 -17.049645 0.003512 13.733696 -2.174985 -0.260993 -0.021474 -0.010487 -0.000000 0.000000 0.000000 0.000000 0.000000 0.000000 0.000000 11.796055 3.377540 -2.228802 71.920678 26.461275 13.938495 2.418835 34.166700 0.008813 1.031566 10.392623 0.092422 0.032496 -0.130925 0.000000 0.000000 0.000000 0.000000 0.000000 0.000000 0.000000 
-0.505633 16.521157 -0.527777 -162.601708 67.253691 -149.941197 -2.634352 1.395050 11.452998 -1.865270 1.648070 -0.238244 -7.427611 1.680569 1.478679 3.916919 4.939367 5.734420 -4.531001 -0.404105 2.885935 0.000000 0.000000 0.000000 -9.047648 2.936151 0.856056 -60.397006 -12.019948 -0.202751 -2.942531 -19.085508 0.002066 13.741426 -2.464762 -0.297254 -0.030423 -0.002004 -0.000000 0.000000 0.000000 0.000000 0.000000 0.000000 0.000000 11.803441 3.493687 -2.041980 71.579613 25.696445 12.564833 2.557449 32.116804 0.009708 1.511092 10.005893 0.131212 0.034370 -0.120129 0.000000 0.000000 0.000000 0.000000 0.000000 0.000000 0.000000 
-0.407654 16.565126 -0.602226 -163.326712 66.294887 -150.594830 -2.478907 1.314013 11.252586 -1.821031 1.569999 -0.295261 -7.435330 1.598122 1.419484 3.912115 5.093902 5.684553 -4.511018 -0.401861 2.884852 0.000000 0.000000 0.000000 -9.066881 2.548828 0.863974 -60.844315 -13.030641 0.514755 -2.921179 -21.233731 0.000103 13.442061 -2.496871 -0.296102 -0.041746 0.009045 -0.000000 0.000000 0.000000 0.000000 0.000000 0.000000 0.000000 11.814571 3.582802 -1.847906 71.237537 24.930587 11.178526 2.703034 30.091649 0.010534 2.021774 9.588337 0.168806 0.036684 -0.109856 0.000000 0.000000 0.000000 0.000000 0.000000 0.000000 0.000000 
